<svg width="256" height="256" viewBox="0 0 256 256" fill="none" xmlns="http://www.w3.org/2000/svg">
<path d="M54.52 99.744C59.512 99.744 64.12 100.992 68.344 103.488C72.568 105.92 75.896 109.248 78.328 113.472C80.824 117.696 82.072 122.304 82.072 127.296V141.888C82.072 146.88 80.824 151.488 78.328 155.712C75.896 159.936 72.568 163.296 68.344 165.792C64.12 168.224 59.512 169.44 54.52 169.44C49.528 169.44 44.92 168.224 40.696 165.792C36.472 163.296 33.112 159.936 30.616 155.712C28.184 151.488 26.968 146.88 26.968 141.888V127.296C26.968 122.304 28.184 117.696 30.616 113.472C33.112 109.248 36.472 105.92 40.696 103.488C44.92 100.992 49.528 99.744 54.52 99.744ZM30.52 141.888C30.52 146.24 31.576 150.272 33.688 153.984C35.864 157.632 38.776 160.544 42.424 162.72C46.136 164.832 50.168 165.888 54.52 165.888C58.872 165.888 62.872 164.832 66.52 162.72C70.232 160.544 73.144 157.632 75.256 153.984C77.432 150.272 78.52 146.24 78.52 141.888V127.296C78.52 122.944 77.432 118.944 75.256 115.296C73.144 111.584 70.232 108.672 66.52 106.56C62.872 104.384 58.872 103.296 54.52 103.296C50.168 103.296 46.136 104.384 42.424 106.56C38.776 108.672 35.864 111.584 33.688 115.296C31.576 118.944 30.52 122.944 30.52 127.296V141.888ZM97.2625 168L123.471 134.592L97.2625 101.184H153.999L127.791 134.592L153.999 168H97.2625ZM125.583 131.712L146.799 104.736H104.463L125.583 131.712ZM146.799 164.448L125.583 137.472L104.463 164.448H146.799ZM196.645 99.744C201.637 99.744 206.245 100.992 210.469 103.488C214.693 105.92 218.021 109.248 220.453 113.472C222.949 117.696 224.197 122.304 224.197 127.296V141.888C224.197 146.88 222.949 151.488 220.453 155.712C218.021 159.936 214.693 163.296 210.469 165.792C206.245 168.224 201.637 169.44 196.645 169.44C191.653 169.44 187.045 168.224 182.821 165.792C178.597 163.296 175.237 159.936 172.741 155.712C170.309 151.488 169.093 146.88 169.093 141.888V127.296C169.093 122.304 170.309 117.696 172.741 113.472C175.237 109.248 178.597 105.92 182.821 103.488C187.045 100.992 191.653 99.744 196.645 99.744ZM172.645 141.888C172.645 146.24 173.701 150.272 175.813 153.984C177.989 157.632 180.901 160.544 184.549 162.72C188.261 164.832 192.293 165.888 196.645 165.888C200.997 165.888 204.997 164.832 208.645 162.72C212.357 160.544 215.269 157.632 217.381 153.984C219.557 150.272 220.645 146.24 220.645 141.888V127.296C220.645 122.944 219.557 118.944 217.381 115.296C215.269 111.584 212.357 108.672 208.645 106.56C204.997 104.384 200.997 103.296 196.645 103.296C192.293 103.296 188.261 104.384 184.549 106.56C180.901 108.672 177.989 111.584 175.813 115.296C173.701 118.944 172.645 122.944 172.645 127.296V141.888Z" fill="white"/>
</svg>
