<?xml version="1.0" encoding="iso-8859-1"?>
<!-- Uploaded to: SVG Repo, www.svgrepo.com, Generator: SVG Repo Mixer Tools -->
<svg height="800px" width="800px" version="1.1" id="Layer_1" xmlns="http://www.w3.org/2000/svg" xmlns:xlink="http://www.w3.org/1999/xlink" 
	 viewBox="0 0 512 512" xml:space="preserve">
<circle style="fill:#6EAECD;" cx="256" cy="256" r="247.742"/>
<path style="fill:#5388B4;" d="M449.72,101.58c23.422,37.836,36.955,82.439,36.955,130.208
	c0,136.824-110.918,247.742-247.742,247.742c-78.424,0-148.326-36.45-193.72-93.322C88.879,456.745,166.945,503.742,256,503.742
	c136.824,0,247.742-110.918,247.742-247.742C503.742,197.6,483.523,143.93,449.72,101.58z"/>
<circle style="fill:#F2F2F2;" cx="256" cy="256" r="198.194"/>
<path style="fill:#E6E6E6;" d="M81.329,280.192c0-109.459,88.735-198.194,198.194-198.194c49.651,0,95.036,18.258,129.811,48.425
	C372.985,86.094,317.798,57.806,256,57.806C146.541,57.806,57.806,146.541,57.806,256c0,59.808,26.493,113.428,68.382,149.768
	C98.156,371.58,81.329,327.853,81.329,280.192z"/>
<g>
	<circle style="fill:#6EAECD;" cx="256" cy="256" r="28.628"/>
	<path style="fill:#6EAECD;" d="M256,192.646c-4.561,0-8.258-3.697-8.258-8.258V51.872c0-4.561,3.697-8.258,8.258-8.258
		c4.561,0,8.258,3.697,8.258,8.258v132.517C264.258,188.949,260.561,192.646,256,192.646z"/>
	<path style="fill:#6EAECD;" d="M256,468.386c-4.561,0-8.258-3.697-8.258-8.258V327.612c0-4.561,3.697-8.258,8.258-8.258
		c4.561,0,8.258,3.697,8.258,8.258v132.517C264.258,464.689,260.561,468.386,256,468.386z"/>
	<path style="fill:#6EAECD;" d="M460.128,264.258H327.612c-4.561,0-8.258-3.697-8.258-8.258c0-4.561,3.697-8.258,8.258-8.258
		h132.517c4.561,0,8.258,3.697,8.258,8.258C468.386,260.561,464.689,264.258,460.128,264.258z"/>
	<path style="fill:#6EAECD;" d="M184.388,264.258H51.872c-4.561,0-8.258-3.697-8.258-8.258c0-4.561,3.697-8.258,8.258-8.258h132.517
		c4.561,0,8.258,3.697,8.258,8.258C192.646,260.561,188.949,264.258,184.388,264.258z"/>
	<path style="fill:#6EAECD;" d="M305.968,213.621c-2.113,0-4.227-0.806-5.839-2.419c-3.225-3.225-3.225-8.454,0-11.678
		l93.703-93.704c3.225-3.225,8.454-3.225,11.678,0c3.225,3.225,3.225,8.454,0,11.678l-93.703,93.704
		C310.195,212.815,308.082,213.621,305.968,213.621z"/>
	<path style="fill:#6EAECD;" d="M110.991,408.598c-2.113,0-4.227-0.806-5.839-2.419c-3.225-3.225-3.225-8.454,0-11.678
		l93.704-93.704c3.225-3.225,8.454-3.225,11.678,0c3.225,3.225,3.225,8.454,0,11.678l-93.704,93.704
		C115.218,407.792,113.104,408.598,110.991,408.598z"/>
	<path style="fill:#6EAECD;" d="M399.671,408.598c-2.113,0-4.227-0.806-5.839-2.419l-93.703-93.704
		c-3.225-3.225-3.225-8.454,0-11.678c3.225-3.225,8.454-3.226,11.678,0l93.703,93.704c3.225,3.225,3.225,8.454,0,11.678
		C403.898,407.792,401.783,408.598,399.671,408.598z"/>
	<path style="fill:#6EAECD;" d="M204.693,213.621c-2.113,0-4.227-0.806-5.839-2.419l-93.704-93.704
		c-3.225-3.225-3.225-8.454,0-11.678c3.225-3.225,8.454-3.225,11.678,0l93.704,93.704c3.225,3.225,3.225,8.454,0,11.678
		C208.92,212.815,206.807,213.621,204.693,213.621z"/>
	<path style="fill:#6EAECD;" d="M284.031,198.082c-1.052,0-2.12-0.203-3.152-0.629c-4.215-1.743-6.218-6.572-4.475-10.787
		l50.638-122.458c1.742-4.215,6.57-6.218,10.787-4.475c4.215,1.743,6.218,6.572,4.475,10.787l-50.638,122.458
		C290.35,196.161,287.273,198.082,284.031,198.082z"/>
	<path style="fill:#6EAECD;" d="M178.662,452.896c-1.052,0-2.12-0.203-3.152-0.629c-4.215-1.743-6.218-6.572-4.475-10.787
		l50.638-122.458c1.743-4.215,6.569-6.218,10.787-4.475c4.215,1.743,6.218,6.572,4.475,10.787l-50.638,122.458
		C184.981,450.974,181.904,452.896,178.662,452.896z"/>
	<path style="fill:#6EAECD;" d="M445.302,342.264c-1.052,0-2.121-0.203-3.152-0.629l-122.459-50.638
		c-4.215-1.743-6.218-6.572-4.475-10.787c1.743-4.215,6.576-6.217,10.786-4.475l122.459,50.638
		c4.215,1.743,6.218,6.572,4.475,10.787C451.62,340.342,448.545,342.264,445.302,342.264z"/>
	<path style="fill:#6EAECD;" d="M190.488,236.894c-1.052,0-2.121-0.203-3.152-0.629L64.878,185.627
		c-4.215-1.743-6.218-6.572-4.475-10.787c1.743-4.215,6.571-6.219,10.786-4.475l122.459,50.638
		c4.215,1.743,6.218,6.572,4.475,10.787C196.807,234.973,193.731,236.894,190.488,236.894z"/>
	<path style="fill:#6EAECD;" d="M322.199,236.561c-3.238,0-6.312-1.918-7.63-5.096c-1.747-4.213,0.25-9.044,4.463-10.792
		l122.399-50.785c4.212-1.749,9.044,0.251,10.792,4.463c1.747,4.213-0.25,9.044-4.463,10.792L325.36,235.927
		C324.325,236.357,323.253,236.561,322.199,236.561z"/>
	<path style="fill:#6EAECD;" d="M67.511,342.233c-3.238,0-6.312-1.918-7.63-5.095c-1.747-4.213,0.25-9.044,4.463-10.793
		l122.398-50.785c4.215-1.75,9.045,0.251,10.793,4.463c1.747,4.213-0.25,9.044-4.463,10.793L70.674,341.601
		C69.639,342.03,68.565,342.233,67.511,342.233z"/>
	<path style="fill:#6EAECD;" d="M334.283,452.547c-3.238,0-6.312-1.918-7.63-5.096l-50.785-122.399
		c-1.747-4.213,0.25-9.044,4.463-10.792c4.214-1.749,9.044,0.251,10.792,4.463l50.785,122.399c1.747,4.213-0.25,9.044-4.463,10.792
		C336.409,452.344,335.337,452.547,334.283,452.547z"/>
	<path style="fill:#6EAECD;" d="M228.61,197.86c-3.238,0-6.312-1.918-7.63-5.096L170.194,70.365
		c-1.747-4.213,0.25-9.044,4.463-10.792c4.213-1.747,9.045,0.251,10.792,4.463l50.785,122.399c1.747,4.213-0.25,9.044-4.463,10.792
		C230.737,197.656,229.664,197.86,228.61,197.86z"/>
</g>
<path d="M437.019,74.981C388.667,26.628,324.38,0,256,0S123.333,26.628,74.981,74.981S0,187.62,0,256s26.628,132.667,74.981,181.019
	S187.62,512,256,512s132.667-26.628,181.019-74.981S512,324.38,512,256S485.372,123.333,437.019,74.981z M425.341,425.341
	C380.108,470.573,319.968,495.484,256,495.484s-124.108-24.911-169.341-70.143C41.427,380.108,16.516,319.968,16.516,256
	S41.427,131.892,86.659,86.659C131.892,41.427,192.032,16.516,256,16.516s124.108,24.911,169.341,70.143
	c45.232,45.233,70.143,105.373,70.143,169.341S470.573,380.108,425.341,425.341z"/>
<path d="M256,219.114c-20.339,0-36.886,16.547-36.886,36.886c0,20.339,16.547,36.886,36.886,36.886
	c20.339,0,36.886-16.547,36.886-36.886C292.886,235.661,276.339,219.114,256,219.114z M256,276.37
	c-11.232,0-20.37-9.138-20.37-20.37c0-11.232,9.138-20.37,20.37-20.37c11.232,0,20.37,9.138,20.37,20.37
	C276.37,267.232,267.232,276.37,256,276.37z"/>
<path d="M256,49.548C142.162,49.548,49.548,142.162,49.548,256S142.162,462.452,256,462.452S462.452,369.838,462.452,256
	S369.838,49.548,256,49.548z M256,445.935c-104.731,0-189.935-85.204-189.935-189.935S151.269,66.065,256,66.065
	S445.935,151.269,445.935,256S360.731,445.935,256,445.935z"/>
<path d="M256,205.351c4.561,0,8.258-3.697,8.258-8.258V88.086c0-4.561-3.697-8.258-8.258-8.258c-4.561,0-8.258,3.697-8.258,8.258
	v109.006C247.742,201.653,251.439,205.351,256,205.351z"/>
<path d="M256,306.649c-4.561,0-8.258,3.697-8.258,8.258v109.006c0,4.561,3.697,8.258,8.258,8.258c4.561,0,8.258-3.697,8.258-8.258
	V314.908C264.258,310.347,260.561,306.649,256,306.649z"/>
<path d="M423.914,247.742H314.908c-4.561,0-8.258,3.697-8.258,8.258c0,4.561,3.697,8.258,8.258,8.258h109.006
	c4.561,0,8.258-3.697,8.258-8.258C432.172,251.439,428.475,247.742,423.914,247.742z"/>
<path d="M205.351,256c0-4.561-3.697-8.258-8.258-8.258H88.086c-4.561,0-8.258,3.697-8.258,8.258c0,4.561,3.697,8.258,8.258,8.258
	h109.006C201.653,264.258,205.351,260.561,205.351,256z"/>
<path d="M291.264,220.185c1.612,1.612,3.726,2.419,5.839,2.419c2.113,0,4.227-0.806,5.839-2.419l77.08-77.08
	c3.225-3.225,3.225-8.454,0-11.678c-3.225-3.225-8.454-3.225-11.678,0l-77.08,77.08C288.039,211.731,288.039,216.96,291.264,220.185
	z"/>
<path d="M219.635,291.815c-3.225-3.225-8.454-3.225-11.678,0l-77.08,77.08c-3.225,3.225-3.225,8.454,0,11.678
	c1.612,1.612,3.726,2.419,5.839,2.419s4.227-0.806,5.839-2.419l77.08-77.08C222.86,300.269,222.86,295.04,219.635,291.815z"/>
<path d="M302.942,291.815c-3.225-3.225-8.454-3.225-11.678,0c-3.225,3.225-3.225,8.454,0,11.678l77.08,77.08
	c1.612,1.612,3.726,2.419,5.839,2.419s4.227-0.806,5.839-2.419c3.225-3.225,3.225-8.454,0-11.678L302.942,291.815z"/>
<path d="M207.957,220.185c1.612,1.612,3.726,2.419,5.839,2.419c2.113,0,4.227-0.806,5.839-2.419c3.225-3.225,3.225-8.454,0-11.678
	l-77.08-77.08c-3.225-3.225-8.454-3.225-11.678,0c-3.225,3.225-3.225,8.454,0,11.678L207.957,220.185z"/>
<path d="M275.905,209.194c1.033,0.427,2.101,0.629,3.152,0.629c3.242,0,6.319-1.922,7.635-5.105l41.655-100.733
	c1.743-4.215-0.261-9.044-4.475-10.787c-4.216-1.743-9.044,0.26-10.787,4.475L271.43,198.406
	C269.687,202.622,271.69,207.451,275.905,209.194z"/>
<path d="M237.196,302.806c-4.217-1.743-9.045,0.261-10.787,4.475l-41.655,100.733c-1.743,4.215,0.261,9.044,4.475,10.787
	c1.033,0.427,2.101,0.629,3.152,0.629c3.242,0,6.319-1.922,7.635-5.105l41.655-100.733
	C243.414,309.378,241.411,304.549,237.196,302.806z"/>
<path d="M414.876,312.535L314.143,270.88c-4.216-1.744-9.045,0.26-10.787,4.475c-1.743,4.215,0.261,9.044,4.475,10.787
	l100.733,41.655c1.033,0.427,2.101,0.629,3.152,0.629c3.242,0,6.319-1.922,7.635-5.105
	C421.095,319.106,419.091,314.277,414.876,312.535z"/>
<path d="M98.225,199.465l100.733,41.655c1.033,0.427,2.101,0.629,3.152,0.629c3.242,0,6.319-1.922,7.635-5.105
	c1.743-4.215-0.261-9.044-4.475-10.787l-100.734-41.654c-4.218-1.743-9.044,0.261-10.787,4.475
	C92.006,192.894,94.01,197.723,98.225,199.465z"/>
<path d="M302.824,236.379c1.318,3.178,4.392,5.096,7.63,5.096c1.055,0,2.127-0.204,3.161-0.633L414.3,199.067
	c4.213-1.747,6.211-6.58,4.463-10.792c-1.747-4.213-6.58-6.21-10.792-4.463l-100.685,41.775
	C303.074,227.335,301.076,232.166,302.824,236.379z"/>
<path d="M209.259,275.201c-1.746-4.213-6.58-6.212-10.792-4.463L97.784,312.513c-4.213,1.747-6.211,6.58-4.463,10.792
	c1.318,3.178,4.392,5.096,7.63,5.096c1.055,0,2.127-0.204,3.161-0.633l100.683-41.775
	C209.009,284.245,211.007,279.413,209.259,275.201z"/>
<path d="M286.244,307.035c-1.747-4.213-6.58-6.211-10.792-4.463c-4.213,1.747-6.211,6.58-4.463,10.792l41.775,100.683
	c1.318,3.178,4.392,5.096,7.63,5.096c1.055,0,2.127-0.204,3.161-0.633c4.213-1.747,6.211-6.58,4.463-10.792L286.244,307.035z"/>
<path d="M225.839,204.545c1.318,3.178,4.392,5.096,7.63,5.096c1.055,0,2.127-0.204,3.162-0.633c4.213-1.747,6.21-6.58,4.463-10.792
	L199.32,97.532c-1.749-4.214-6.58-6.212-10.793-4.463c-4.213,1.747-6.21,6.58-4.463,10.792L225.839,204.545z"/>
</svg>