<svg width="727" height="133" viewBox="0 0 727 133" fill="none" xmlns="http://www.w3.org/2000/svg">
<g clip-path="url(#clip0_90_4)">
<path d="M95.6651 38.1912H148.933V42.2134H99.6873V72.8697H142.519V76.892H99.6873V109.831H148.933V113.854H95.6651V38.1912ZM171.679 38.1912H175.701V84.9366C175.701 89.7198 176.897 94.1407 179.289 98.1992C181.68 102.258 184.905 105.483 188.964 107.874C193.022 110.266 197.443 111.462 202.227 111.462C207.01 111.462 211.431 110.266 215.489 107.874C219.548 105.483 222.773 102.258 225.164 98.1992C227.556 94.1407 228.752 89.7198 228.752 84.9366V38.1912H232.774V84.9366C232.774 90.4446 231.397 95.554 228.643 100.265C225.889 104.903 222.157 108.599 217.446 111.353C212.808 114.107 207.735 115.484 202.227 115.484C196.719 115.484 191.609 114.107 186.898 111.353C182.26 108.599 178.564 104.903 175.81 100.265C173.056 95.554 171.679 90.4446 171.679 84.9366V38.1912ZM299.113 40.6915C303.461 42.7208 306.868 45.7284 309.332 49.7145C311.868 53.7005 313.137 58.1214 313.137 62.9771C313.137 68.63 311.397 73.7032 307.918 78.1965C304.512 82.6174 300.128 85.5526 294.765 87.0021L314.006 113.854H309.223L290.634 87.763L287.155 87.8718H259.869V113.854H255.846V38.1912H284.654C287.843 38.1912 290.561 38.4086 292.808 38.8434C295.127 39.2058 297.229 39.8218 299.113 40.6915ZM288.242 83.8495C292.011 83.8495 295.489 82.9073 298.678 81.023C301.867 79.1387 304.404 76.6021 306.288 73.4133C308.172 70.2245 309.114 66.7457 309.114 62.9771C309.114 58.7736 307.991 54.9688 305.744 51.5625C303.57 48.1563 300.526 45.6197 296.613 43.9528C293.786 42.7932 289.8 42.2134 284.654 42.2134H259.869V83.8495H288.242ZM363.169 36.5605C368.822 36.5605 374.04 37.9737 378.823 40.8002C383.606 43.5542 387.375 47.3228 390.129 52.1061C392.955 56.8893 394.369 62.1074 394.369 67.7604V84.2843C394.369 89.9373 392.955 95.1553 390.129 99.9386C387.375 104.722 383.606 108.527 378.823 111.353C374.04 114.107 368.822 115.484 363.169 115.484C357.516 115.484 352.298 114.107 347.514 111.353C342.731 108.527 338.926 104.722 336.1 99.9386C333.346 95.1553 331.969 89.9373 331.969 84.2843V67.7604C331.969 62.1074 333.346 56.8893 336.1 52.1061C338.926 47.3228 342.731 43.5542 347.514 40.8002C352.298 37.9737 357.516 36.5605 363.169 36.5605ZM335.991 84.2843C335.991 89.2125 337.187 93.7784 339.579 97.9818C342.043 102.113 345.34 105.41 349.471 107.874C353.675 110.266 358.241 111.462 363.169 111.462C368.097 111.462 372.627 110.266 376.758 107.874C380.961 105.41 384.259 102.113 386.65 97.9818C389.114 93.7784 390.346 89.2125 390.346 84.2843V67.7604C390.346 62.8322 389.114 58.3026 386.65 54.1716C384.259 49.9681 380.961 46.6706 376.758 44.2789C372.627 41.8148 368.097 40.5828 363.169 40.5828C358.241 40.5828 353.675 41.8148 349.471 44.2789C345.34 46.6706 342.043 49.9681 339.579 54.1716C337.187 58.3026 335.991 62.8322 335.991 67.7604V84.2843Z" fill="white"/>
<path d="M2.03911 113.137V14.4864H7.56695L76.4523 81.5292V14.4864H81.6967V113.137H2.03911Z" fill="white"/>
<path d="M528.287 34.2959C533.94 34.2959 539.158 35.7091 543.941 38.5356C548.724 41.2896 552.493 45.0582 555.247 49.8414C558.073 54.6247 559.486 59.8428 559.486 65.4957V82.0197C559.486 87.6726 558.073 92.8907 555.247 97.674C552.493 102.457 548.724 106.262 543.941 109.089C539.158 111.843 533.94 113.22 528.287 113.22C522.634 113.22 517.416 111.843 512.632 109.089C507.849 106.262 504.044 102.457 501.218 97.674C498.464 92.8907 497.087 87.6726 497.087 82.0197V65.4957C497.087 59.8428 498.464 54.6247 501.218 49.8414C504.044 45.0582 507.849 41.2896 512.632 38.5356C517.416 35.7091 522.634 34.2959 528.287 34.2959ZM501.109 82.0197C501.109 86.9479 502.305 91.5137 504.697 95.7172C507.161 99.8482 510.458 103.146 514.589 105.61C518.793 108.001 523.358 109.197 528.287 109.197C533.215 109.197 537.744 108.001 541.875 105.61C546.079 103.146 549.376 99.8482 551.768 95.7172C554.232 91.5137 555.464 86.9479 555.464 82.0197V65.4957C555.464 60.5675 554.232 56.0379 551.768 51.9069C549.376 47.7035 546.079 44.4059 541.875 42.0143C537.744 39.5502 533.215 38.3181 528.287 38.3181C523.358 38.3181 518.793 39.5502 514.589 42.0143C510.458 44.4059 507.161 47.7035 504.697 51.9069C502.305 56.0379 501.109 60.5675 501.109 65.4957V82.0197ZM579.189 111.589V35.9265H583.428L636.261 87.2378V35.9265H640.284V111.589H636.261V92.8907L583.211 41.1446V111.589H579.189ZM663.138 35.9265H716.406V39.9488H667.161V70.6051H709.992V74.6274H667.161V107.567H716.406V111.589H663.138V35.9265Z" fill="white"/>
<path d="M403.837 110.544L441.325 62.757L403.837 14.9702H484.992L447.504 62.757L484.992 110.544H403.837ZM444.346 58.6374L474.693 20.051H414.136L444.346 58.6374ZM474.693 105.463L444.346 66.8765L414.136 105.463H474.693Z" fill="white"/>
</g>
<defs>
<clipPath id="clip0_90_4">
<rect width="727" height="132.491" fill="white"/>
</clipPath>
</defs>
</svg>
