<svg width="193" height="77" viewBox="0 0 193 77" fill="none" xmlns="http://www.w3.org/2000/svg">
<g clip-path="url(#clip0_90_6)">
<path d="M30.34 13.698C34.604 13.698 38.54 14.764 42.148 16.896C45.756 18.9733 48.5987 21.816 50.676 25.424C52.808 29.032 53.874 32.968 53.874 37.232V49.696C53.874 53.96 52.808 57.896 50.676 61.504C48.5987 65.112 45.756 67.982 42.148 70.114C38.54 72.1913 34.604 73.23 30.34 73.23C26.076 73.23 22.14 72.1913 18.532 70.114C14.924 67.982 12.054 65.112 9.922 61.504C7.84467 57.896 6.806 53.96 6.806 49.696V37.232C6.806 32.968 7.84467 29.032 9.922 25.424C12.054 21.816 14.924 18.9733 18.532 16.896C22.14 14.764 26.076 13.698 30.34 13.698ZM9.84 49.696C9.84 53.4133 10.742 56.8573 12.546 60.028C14.4047 63.144 16.892 65.6313 20.008 67.49C23.1787 69.294 26.6227 70.196 30.34 70.196C34.0573 70.196 37.474 69.294 40.59 67.49C43.7607 65.6313 46.248 63.144 48.052 60.028C49.9107 56.8573 50.84 53.4133 50.84 49.696V37.232C50.84 33.5147 49.9107 30.098 48.052 26.982C46.248 23.8113 43.7607 21.324 40.59 19.52C37.474 17.6613 34.0573 16.732 30.34 16.732C26.6227 16.732 23.1787 17.6613 20.008 19.52C16.892 21.324 14.4047 23.8113 12.546 26.982C10.742 30.098 9.84 33.5147 9.84 37.232V49.696ZM67.8992 72L94.1072 38.592L67.8992 5.184H124.635L98.4272 38.592L124.635 72H67.8992ZM96.2192 35.712L117.435 8.736H75.0992L96.2192 35.712ZM117.435 68.448L96.2192 41.472L75.0992 68.448H117.435ZM162.102 13.698C166.366 13.698 170.302 14.764 173.91 16.896C177.518 18.9733 180.36 21.816 182.438 25.424C184.57 29.032 185.636 32.968 185.636 37.232V49.696C185.636 53.96 184.57 57.896 182.438 61.504C180.36 65.112 177.518 67.982 173.91 70.114C170.302 72.1913 166.366 73.23 162.102 73.23C157.838 73.23 153.902 72.1913 150.294 70.114C146.686 67.982 143.816 65.112 141.684 61.504C139.606 57.896 138.568 53.96 138.568 49.696V37.232C138.568 32.968 139.606 29.032 141.684 25.424C143.816 21.816 146.686 18.9733 150.294 16.896C153.902 14.764 157.838 13.698 162.102 13.698ZM141.602 49.696C141.602 53.4133 142.504 56.8573 144.308 60.028C146.166 63.144 148.654 65.6313 151.77 67.49C154.94 69.294 158.384 70.196 162.102 70.196C165.819 70.196 169.236 69.294 172.352 67.49C175.522 65.6313 178.01 63.144 179.814 60.028C181.672 56.8573 182.602 53.4133 182.602 49.696V37.232C182.602 33.5147 181.672 30.098 179.814 26.982C178.01 23.8113 175.522 21.324 172.352 19.52C169.236 17.6613 165.819 16.732 162.102 16.732C158.384 16.732 154.94 17.6613 151.77 19.52C148.654 21.324 146.166 23.8113 144.308 26.982C142.504 30.098 141.602 33.5147 141.602 37.232V49.696Z" fill="#A7A7A7"/>
</g>
<defs>
<clipPath id="clip0_90_6">
<rect width="193" height="77" fill="white"/>
</clipPath>
</defs>
</svg>
