<svg width="60" height="60" viewBox="0 0 60 60" fill="none" xmlns="http://www.w3.org/2000/svg">
<path d="M39.1499 45.3C38.2499 45.3 37.5749 44.625 37.5749 43.725V34.8C37.5749 33.9 38.2499 33.225 39.1499 33.225C40.0499 33.225 40.7249 33.9 40.7249 34.8V43.725C40.7249 44.625 40.0499 45.3 39.1499 45.3ZM20.3249 45.3C19.4249 45.3 18.7499 44.625 18.7499 43.725V34.8C18.7499 33.9 19.4249 33.225 20.3249 33.225C21.2249 33.225 21.8999 33.9 21.8999 34.8V43.725C21.8249 44.625 21.0749 45.3 20.3249 45.3ZM44.5499 40.875C44.4749 40.875 44.3999 40.875 44.3249 40.875C43.4999 40.725 42.8999 39.975 42.9749 39.075C42.9749 39 44.5499 27.825 39.3749 21.75C37.1249 19.2 33.8999 17.85 29.7749 17.85C25.6499 17.85 22.4249 19.125 20.1749 21.75C14.9249 27.825 16.5749 38.925 16.5749 39.075C16.7249 39.9 16.1249 40.725 15.2249 40.875C14.3999 41.025 13.5749 40.425 13.4249 39.525C13.2749 39 11.6249 26.85 17.6999 19.65C20.5499 16.35 24.5999 14.625 29.6999 14.625C34.7999 14.625 38.8499 16.275 41.6999 19.65C47.8499 26.775 46.1249 39 46.0499 39.45C45.9749 40.275 45.2999 40.875 44.5499 40.875Z" fill="black"/>
<path d="M19.8901 34.2773L38.8901 44.2773" stroke="black" stroke-linecap="round"/>
</svg>
