<!DOCTYPE svg PUBLIC "-//W3C//DTD SVG 1.1//EN" "http://www.w3.org/Graphics/SVG/1.1/DTD/svg11.dtd">
<!-- Uploaded to: SVG Repo, www.svgrepo.com, Transformed by: SVG Repo Mixer Tools -->
<svg fill="#ee5ddb" height="800px" width="800px" version="1.1" id="Layer_1" xmlns="http://www.w3.org/2000/svg" xmlns:xlink="http://www.w3.org/1999/xlink" viewBox="0 0 512 512" xml:space="preserve" stroke="#ee5ddb">
<g id="SVGRepo_bgCarrier" stroke-width="0"/>
<g id="SVGRepo_tracerCarrier" stroke-linecap="round" stroke-linejoin="round"/>
<g id="SVGRepo_iconCarrier"> <g> <g> <g> <path d="M366.933,204.8H0V384c0,23.526,19.14,42.667,42.667,42.667h349.867V230.4C392.533,216.286,381.047,204.8,366.933,204.8z M366.933,341.333c0,23.526-19.14,42.667-42.667,42.667H85.333c-23.526,0-42.667-19.14-42.667-42.667v-68.267 c0-23.526,19.14-42.667,42.667-42.667h238.933c23.526,0,42.667,19.14,42.667,42.667V341.333z"/> <path d="M324.267,247.467H85.333c-14.114,0-25.6,11.486-25.6,25.6v68.267c0,14.114,11.486,25.6,25.6,25.6h238.933 c14.114,0,25.6-11.486,25.6-25.6v-68.267C349.867,258.953,338.381,247.467,324.267,247.467z M145.067,315.733 c0,9.412-7.654,17.067-17.067,17.067h-17.067c-9.412,0-17.067-7.654-17.067-17.067v-17.067c0-9.412,7.654-17.067,17.067-17.067 H128c9.412,0,17.067,7.654,17.067,17.067V315.733z M230.4,315.733h-51.2c-4.719,0-8.533-3.823-8.533-8.533 s3.814-8.533,8.533-8.533h51.2c4.719,0,8.533,3.823,8.533,8.533S235.119,315.733,230.4,315.733z M315.733,315.733 c0,9.412-7.654,17.067-17.067,17.067H281.6c-9.412,0-17.067-7.654-17.067-17.067v-17.067c0-9.412,7.654-17.067,17.067-17.067 h17.067c9.412,0,17.067,7.654,17.067,17.067V315.733z"/> <polygon points="281.6,298.667 281.6,315.733 298.675,315.733 298.667,298.667 "/> <polygon points="110.933,298.667 110.933,315.733 128.009,315.733 128,298.667 "/> <polygon points="443.733,332.8 443.733,349.867 460.809,349.867 460.8,332.8 "/> <polygon points="443.733,196.267 443.733,213.333 460.809,213.333 460.8,196.267 "/> <polygon points="443.733,264.533 443.733,281.6 460.809,281.6 460.8,264.533 "/> <path d="M469.333,119.467H298.667v-8.636c0-4.71-3.814-8.533-8.533-8.533s-8.533,3.823-8.533,8.533v8.636h-17.067v-8.636 c0-4.71-3.814-8.533-8.533-8.533s-8.533,3.823-8.533,8.533v8.636H230.4v-8.533c0-14.114-11.486-25.6-25.6-25.6h-34.133 c-14.114,0-25.6,11.486-25.6,25.6v8.533H128v-8.533c0-14.114-11.486-25.6-25.6-25.6H68.267c-14.114,0-25.6,11.486-25.6,25.6 v8.533C19.14,119.467,0,138.607,0,162.133v25.6h366.933c23.526,0,42.667,19.14,42.667,42.667v196.267h59.733 C492.86,426.667,512,407.526,512,384V162.133C512,138.607,492.86,119.467,469.333,119.467z M110.933,119.467h-51.2v-8.533 c0-4.702,3.823-8.533,8.533-8.533H102.4c4.71,0,8.533,3.831,8.533,8.533V119.467z M213.333,119.467h-51.2v-8.533 c0-4.702,3.823-8.533,8.533-8.533H204.8c4.71,0,8.533,3.831,8.533,8.533V119.467z M477.867,349.867 c0,9.412-7.654,17.067-17.067,17.067h-17.067c-9.412,0-17.067-7.654-17.067-17.067V332.8c0-9.412,7.654-17.067,17.067-17.067 H460.8c9.412,0,17.067,7.654,17.067,17.067V349.867z M477.867,281.6c0,9.412-7.654,17.067-17.067,17.067h-17.067 c-9.412,0-17.067-7.654-17.067-17.067v-17.067c0-9.412,7.654-17.067,17.067-17.067H460.8c9.412,0,17.067,7.654,17.067,17.067 V281.6z M477.867,213.333c0,9.412-7.654,17.067-17.067,17.067h-17.067c-9.412,0-17.067-7.654-17.067-17.067v-17.067 c0-9.412,7.654-17.067,17.067-17.067H460.8c9.412,0,17.067,7.654,17.067,17.067V213.333z"/> </g> </g> </g> </g>
</svg>